<svg xmlns="http://www.w3.org/2000/svg" xmlns:xlink="http://www.w3.org/1999/xlink" version="1.1" id="Layer_1" x="0px" y="0px" style="enable-background:new 0 0 423.49 160.4;" xml:space="preserve" viewBox="47.32 42.4 328.85 75.6">
<style type="text/css">
	.st0{fill:#5CB8B2;}
</style>
<polygon points="138.87,75.04 134.25,75.04 134.25,72.11 146.81,72.11 146.81,75.04 142.21,75.04 142.21,88.28 138.87,88.28 "/>
<polygon points="149.86,72.11 153.18,72.11 153.18,78.96 160.11,78.96 160.11,72.11 163.44,72.11 163.44,88.28 160.11,88.28   160.11,81.94 153.18,81.94 153.18,88.28 149.86,88.28 "/>
<polygon points="167.4,72.11 178.1,72.11 178.1,75.04 170.73,75.04 170.73,78.75 177.23,78.75 177.23,81.6 170.73,81.6   170.73,85.36 178.44,85.36 178.44,88.28 167.4,88.28 "/>
<path d="M193.89,71.98h0.29l7.4,16.31h-3.5l-0.9-2.19h-6.28l-0.9,2.19h-3.21L193.89,71.98z M195.98,83.31l-1.03-2.44  c-0.45-1.07-0.93-2.71-0.97-2.88c-0.03,0.08-0.5,1.76-0.95,2.88l-1.02,2.44H195.98z"/>
<path d="M204.35,72.11h4.97c4.96,0,8.51,3.31,8.51,8.08c0,4.79-3.51,8.09-8.51,8.09h-4.97V72.11z M209.15,85.36  c3.59,0,5.23-2.14,5.23-5.17c0-3.01-1.64-5.15-5.23-5.15h-1.47v10.32H209.15z"/>
<polygon points="221.24,72.11 231.94,72.11 231.94,75.04 224.55,75.04 224.55,78.75 231.05,78.75 231.05,81.6 224.55,81.6   224.55,85.36 232.27,85.36 232.27,88.28 221.24,88.28 "/>
<path d="M235.04,80.19c0-4.77,3.69-8.26,8.33-8.26c2.91,0,5,1.04,6.46,3.3l-2.55,1.81c-0.76-1.24-2.07-2.12-3.91-2.12  c-2.93,0-4.91,2.26-4.91,5.27c0,3.03,1.97,5.34,4.91,5.34c2.09,0,3.25-1.01,4.15-2.38l2.6,1.77c-1.41,2.19-3.63,3.57-6.75,3.57  C238.74,88.49,235.04,84.98,235.04,80.19"/>
<path d="M252.4,80.19c0-4.77,3.68-8.26,8.32-8.26c2.93,0,5.03,1.04,6.47,3.3l-2.55,1.81c-0.75-1.24-2.06-2.12-3.92-2.12  c-2.92,0-4.89,2.26-4.89,5.27c0,3.03,1.98,5.34,4.89,5.34c2.09,0,3.27-1.01,4.17-2.38l2.58,1.77c-1.41,2.19-3.63,3.57-6.75,3.57  C256.08,88.49,252.4,84.98,252.4,80.19"/>
<path d="M269.75,80.19c0-4.77,3.71-8.28,8.37-8.28c4.67,0,8.37,3.52,8.37,8.28c0,4.79-3.69,8.3-8.37,8.3  C273.47,88.49,269.75,84.98,269.75,80.19 M283.09,80.19c0-3.01-2.01-5.31-4.96-5.31c-2.95,0-4.94,2.3-4.94,5.31  c0,3.03,1.99,5.34,4.94,5.34C281.07,85.53,283.09,83.22,283.09,80.19"/>
<path d="M293.8,80.19c0-4.77,3.38-8.26,8.26-8.26c2.63,0,4.53,0.71,5.86,2.23l-2.26,2.23c-0.8-0.83-1.73-1.47-3.6-1.47  c-2.94,0-4.84,2.26-4.84,5.27c0,3.03,1.96,5.34,5.36,5.34c1.03,0,2.33-0.19,3.17-0.6v-2.61h-3.9v-2.92h6.94v7.22  c-0.92,0.76-3.25,1.87-6.2,1.87C297.3,88.49,293.8,84.98,293.8,80.19"/>
<path d="M312.51,72.11h5.99c3.3,0,6.02,1.55,6.02,5.32c0,2.46-1.28,4-3.17,4.73l3.69,6.11h-3.82l-3.28-5.61h-2.12v5.61h-3.33V72.11z   M318.4,79.87c1.64,0,2.69-0.65,2.69-2.43c0-1.8-1.11-2.39-2.69-2.39h-2.57v4.83H318.4z"/>
<path d="M327.39,80.19c0-4.77,3.71-8.28,8.38-8.28c4.66,0,8.37,3.52,8.37,8.28c0,4.79-3.72,8.3-8.37,8.3  C331.1,88.49,327.39,84.98,327.39,80.19 M340.71,80.19c0-3.01-1.99-5.31-4.94-5.31c-2.95,0-4.95,2.3-4.95,5.31  c0,3.03,2,5.34,4.95,5.34C338.72,85.53,340.71,83.22,340.71,80.19"/>
<path d="M347.5,82.43V72.11h3.31v10.13c0,2.35,1.04,3.26,3.24,3.26c2.19,0,3.19-0.91,3.19-3.26V72.11h3.33v10.32  c0,4.1-2.83,6.06-6.52,6.06C350.32,88.49,347.5,86.53,347.5,82.43"/>
<path d="M364.47,72.11h5.68c3.3,0,6.02,1.64,6.02,5.42c0,3.78-2.73,5.45-6.02,5.45h-2.36v5.3h-3.32V72.11z M370.05,80.05  c1.64,0,2.68-0.73,2.68-2.52c0-1.8-1.08-2.49-2.68-2.49h-2.26v5.01H370.05z"/>
<rect x="117.15" y="42.4" class="st0" width="2.08" height="75.6"/>
<path d="M73.38,51.85l-26.06,56.69h2.15L66.83,70.6l17.21,37.94h18.08L73.38,51.85z M58.85,93.31l-0.9,1.97h10.74l-0.9-1.97H58.85z"/>
</svg>